# xmcd
#
# Track frame offsets:
#	150
#	16166
#	52530
#	76771
#	99678
#	113869
#	146780
#	172853
#	187110
#	219129
#	246126
#	270576
#	302865
#	330578
#
# Disc length: 4720 seconds
#
# Revision: 1
# Processed by: cddbd v1.5.2PL0 Copyright (c) Steve Scherf et al.
# Submitted via: audiograbber 1.83.01
#
DISCID=b1126e0e
DTITLE=Stefan Erbe - Reflect+
DYEAR=2019
DGENRE=Electronic
TTITLE0=A Big Wave
TTITLE1=Restart the World
TTITLE2=The Child of Aleppo
TTITLE3=Luxury
TTITLE4=Understand
TTITLE5=Fingerprints
TTITLE6=Here Comes the News
TTITLE7=Think Loud
TTITLE8=Planet Plastic
TTITLE9=You Are Not Alone
TTITLE10=The Astronaut
TTITLE11=Voices in Your Head
TTITLE12=Forlorn
TTITLE13=What Ever You Believe In
EXTD=
EXTT0=
EXTT1=
EXTT2=
EXTT3=
EXTT4=
EXTT5=
EXTT6=
EXTT7=
EXTT8=
EXTT9=
EXTT10=
EXTT11=
EXTT12=
EXTT13=
PLAYORDER=
